<svg width="327" height="229" viewBox="0 0 327 229" fill="none" xmlns="http://www.w3.org/2000/svg">
<path d="M218.388 63.6808H38.6947C36.8124 63.6808 35.1848 64.9932 34.7857 66.8327L6.40738 197.633C5.76856 200.577 8.49111 203.144 11.3929 202.333L223.757 142.995C226.307 142.282 228.834 144.199 228.834 146.847V218.044C228.834 221.649 233.228 223.415 235.722 220.812L319.633 133.243C320.996 131.821 321.121 129.619 319.927 128.052L229.57 9.42874C227.25 6.38279 222.388 8.02357 222.388 11.8525V59.6808C222.388 61.8899 220.597 63.6808 218.388 63.6808Z" fill="url(#paint0_linear_5_5)" stroke="white" stroke-width="12"/>
<path d="M107.92 97.72C107.76 97.4533 107.653 97.2133 107.6 97C107.6 96.7333 107.6 96.4667 107.6 96.2C107.547 92.7867 107.573 89.4 107.68 86.04C107.84 82.6267 107.973 79.2133 108.08 75.8C108.08 75.2133 108.16 74.84 108.32 74.68C108.48 74.52 108.773 74.44 109.2 74.44C110 74.5467 110.453 74.6533 110.56 74.76C110.72 74.8667 110.88 75.3467 111.04 76.2C111.413 77.5867 111.573 78.9467 111.52 80.28C111.467 81.56 111.413 82.8933 111.36 84.28C111.253 87.4267 111.28 90.5467 111.44 93.64C111.6 96.68 111.733 99.7467 111.84 102.84C112.107 106.787 112.427 110.68 112.8 114.52C113.173 118.36 113.44 122.227 113.6 126.12C113.707 127.347 113.733 128.547 113.68 129.72C113.68 130.84 113.627 132.013 113.52 133.24C113.52 134.04 113.36 134.84 113.04 135.64C112.773 136.227 112.453 136.707 112.08 137.08C111.76 137.453 111.333 137.587 110.8 137.48C109.84 137.32 108.907 137.08 108 136.76C107.093 136.44 106.293 135.8 105.6 134.84C105.173 134.253 104.747 133.64 104.32 133C103.947 132.307 103.573 131.587 103.2 130.84C101.813 128.013 100.613 125.133 99.6 122.2C98.5867 119.213 97.6 116.2 96.64 113.16C95.5733 109.8 94.5067 106.467 93.44 103.16C92.4267 99.8533 91.3067 96.5467 90.08 93.24C89.8133 92.6 89.5467 91.9867 89.28 91.4C89.0133 90.76 88.6667 90.1733 88.24 89.64C87.6533 88.7867 87.0133 88.6267 86.32 89.16C85.8933 89.48 85.52 89.8267 85.2 90.2C84.88 90.5733 84.5867 90.9733 84.32 91.4C83.4133 92.8933 82.72 94.4667 82.24 96.12C81.8133 97.72 81.4933 99.4267 81.28 101.24C79.84 111.96 79.8933 122.733 81.44 133.56C81.5467 134.147 81.6267 134.76 81.68 135.4C81.7867 136.04 81.8933 136.707 82 137.4C82 137.667 82 137.96 82 138.28C82.0533 138.6 81.8933 138.813 81.52 138.92C81.0933 139.08 80.7467 138.867 80.48 138.28C80.4267 138.173 80.3733 138.04 80.32 137.88C80.32 137.72 80.24 137.72 80.08 137.88C79.6533 138.467 79.3867 138.6 79.28 138.28C79.1733 138.013 78.9867 137.667 78.72 137.24C77.8667 135.533 77.3333 133.773 77.12 131.96C76.9067 130.093 76.72 128.227 76.56 126.36C76.1333 121.667 75.9733 117.027 76.08 112.44C76.1867 107.8 76.56 103.16 77.2 98.52C77.4667 96.6 77.8667 94.76 78.4 93C78.9867 91.24 79.7867 89.6133 80.8 88.12C81.3867 87.16 82.0533 86.3867 82.8 85.8C83.5467 85.2133 84.4267 84.9733 85.44 85.08C85.7067 85.08 85.8933 85.0533 86 85C87.5467 84.52 88.8 84.7067 89.76 85.56C90.72 86.36 91.5733 87.5333 92.32 89.08C93.3333 91.16 94.24 93.32 95.04 95.56C95.8933 97.7467 96.6667 99.96 97.36 102.2L103.2 121.08C103.68 122.467 104.187 123.88 104.72 125.32C105.307 126.707 105.92 128.093 106.56 129.48C106.827 129.907 107.093 130.36 107.36 130.84C107.627 131.32 107.973 131.72 108.4 132.04C108.667 131.613 108.773 131.16 108.72 130.68C108.72 130.2 108.747 129.747 108.8 129.32C108.853 127.613 108.827 125.933 108.72 124.28C108.613 122.627 108.48 120.947 108.32 119.24C108.053 116.68 107.813 114.147 107.6 111.64C107.387 109.08 107.2 106.52 107.04 103.96C106.773 99.3733 106.587 94.8133 106.48 90.28C106.373 85.6933 106.533 81.1067 106.96 76.52C107.013 76.2533 107.013 75.96 106.96 75.64C106.96 75.2667 107.147 74.9467 107.52 74.68C107.733 75.0533 107.813 75.4267 107.76 75.8C107.707 76.1733 107.653 76.5467 107.6 76.92C107.28 80.0133 107.12 83.1333 107.12 86.28C107.12 89.3733 107.2 92.4933 107.36 95.64C107.413 96.0133 107.44 96.3867 107.44 96.76C107.44 97.1333 107.6 97.4533 107.92 97.72C107.653 99.6933 107.627 101.667 107.84 103.64C108.053 105.56 108.24 107.533 108.4 109.56C108.293 107.533 108.213 105.56 108.16 103.64C108.107 101.667 108.027 99.6933 107.92 97.72ZM79.2 92.92C78.4533 95.3733 77.8933 97.8533 77.52 100.36C77.2 102.867 76.9867 105.4 76.88 107.96C76.7733 110.467 76.7467 113 76.8 115.56C76.8533 118.12 76.9333 120.68 77.04 123.24C77.04 120.68 77.04 118.147 77.04 115.64C77.04 113.08 77.0933 110.547 77.2 108.04C77.36 105.48 77.5733 102.947 77.84 100.44C78.16 97.9333 78.6133 95.4267 79.2 92.92ZM109.52 124.68V128.76L109.12 133.4C109.6 132.333 109.867 131.16 109.92 129.88C109.973 128.547 109.84 126.813 109.52 124.68ZM109.28 120.92C109.28 121.027 109.253 121.107 109.2 121.16C109.2 121.213 109.2 121.267 109.2 121.32C109.253 121.427 109.253 121.533 109.2 121.64C109.2 121.747 109.253 121.853 109.36 121.96C109.467 121.533 109.44 121.187 109.28 120.92ZM108.56 113.24C108.613 113.293 108.64 113.32 108.64 113.32V112.2H108.56V113.24ZM139.224 131.16C139.811 130.84 140.291 130.467 140.664 130.04C141.038 129.56 141.384 129.053 141.704 128.52C142.451 127.24 143.144 125.933 143.784 124.6C144.424 123.267 145.038 121.907 145.624 120.52C145.731 120.307 145.811 120.12 145.864 119.96C145.918 119.8 146.078 119.72 146.344 119.72C146.664 119.72 146.984 119.827 147.304 120.04C147.624 120.2 147.971 120.067 148.344 119.64C148.451 119.533 148.584 119.64 148.744 119.96C148.958 120.227 149.011 120.493 148.904 120.76C148.798 121.133 148.744 121.453 148.744 121.72C148.798 121.987 148.984 122.253 149.304 122.52C149.518 122.68 149.598 122.893 149.544 123.16C149.544 123.373 149.518 123.587 149.464 123.8C148.398 127.96 146.611 131.32 144.104 133.88C141.598 136.387 138.211 137.667 133.944 137.72C130.904 137.773 128.078 137.24 125.464 136.12C122.851 134.947 120.744 132.76 119.144 129.56C118.078 127.373 117.144 125.213 116.344 123.08C115.544 120.893 115.118 118.547 115.064 116.04C115.011 113.907 115.278 111.88 115.864 109.96C116.451 108.04 117.411 106.253 118.744 104.6C120.024 103.053 121.491 101.933 123.144 101.24C124.798 100.493 126.611 100.067 128.584 99.96C129.758 99.96 130.904 99.88 132.024 99.72C133.518 99.4533 134.984 99.6133 136.424 100.2C137.864 100.787 138.958 101.72 139.704 103C140.291 104.067 140.638 105.187 140.744 106.36C140.904 107.48 141.038 108.6 141.144 109.72C141.198 110.04 141.144 110.36 140.984 110.68C140.878 111 140.771 111.293 140.664 111.56C140.131 112.573 139.384 113.507 138.424 114.36C137.464 115.213 136.398 115.907 135.224 116.44C134.104 116.973 132.904 117.347 131.624 117.56C130.398 117.72 129.251 117.64 128.184 117.32C127.491 117.107 126.771 116.973 126.024 116.92C125.278 116.813 124.584 116.547 123.944 116.12C123.731 116.013 123.598 115.987 123.544 116.04C123.491 116.093 123.411 116.227 123.304 116.44C122.718 118.04 122.504 119.747 122.664 121.56C122.878 123.373 123.358 125.08 124.104 126.68C124.904 128.227 125.944 129.587 127.224 130.76C128.558 131.88 130.024 132.627 131.624 133C133.224 133.32 134.638 133.16 135.864 132.52C137.091 131.827 138.238 130.92 139.304 129.8C139.784 129.373 140.158 128.867 140.424 128.28C140.744 127.693 141.064 127.107 141.384 126.52L144.344 120.36C144.398 120.253 144.451 120.12 144.504 119.96C144.558 119.8 144.664 119.773 144.824 119.88C145.038 119.987 145.118 120.12 145.064 120.28C145.011 120.44 144.958 120.573 144.904 120.68C144.744 121.213 144.424 121.987 143.944 123C143.464 123.96 142.931 124.973 142.344 126.04C141.758 127.107 141.171 128.12 140.584 129.08C140.051 129.987 139.598 130.68 139.224 131.16ZM128.104 113.32C128.424 113.213 128.691 113.107 128.904 113C130.664 112.147 132.104 111.053 133.224 109.72C133.811 108.973 134.158 108.04 134.264 106.92C134.371 105.907 133.918 105.48 132.904 105.64C132.584 105.747 132.264 105.853 131.944 105.96C131.624 106.067 131.304 106.173 130.984 106.28C129.598 106.867 128.424 107.693 127.464 108.76C126.504 109.773 125.651 110.92 124.904 112.2C124.798 112.307 124.718 112.44 124.664 112.6C124.611 112.707 124.664 112.813 124.824 112.92C124.931 113.027 125.064 113.08 125.224 113.08H125.464C125.624 112.547 125.811 112.387 126.024 112.6C126.291 112.76 126.558 112.867 126.824 112.92C127.038 112.92 127.251 112.973 127.464 113.08C127.678 113.133 127.891 113.213 128.104 113.32ZM123.304 102.28C121.864 102.813 120.584 103.827 119.464 105.32C118.398 106.813 117.544 108.493 116.904 110.36C116.264 112.227 115.918 114.147 115.864 116.12C115.811 118.04 116.158 119.693 116.904 121.08C116.851 119.32 116.878 117.587 116.984 115.88C117.091 114.173 117.358 112.52 117.784 110.92C118.211 109.32 118.851 107.8 119.704 106.36C120.558 104.92 121.758 103.56 123.304 102.28ZM132.184 111.88C133.571 111.133 134.531 110.333 135.064 109.48C135.598 108.627 135.651 107.907 135.224 107.32C135.011 107.907 134.824 108.387 134.664 108.76C134.558 109.08 134.398 109.373 134.184 109.64C133.971 109.907 133.704 110.227 133.384 110.6C133.118 110.92 132.718 111.347 132.184 111.88ZM162.069 120.44C159.029 124.973 156.282 129.56 153.829 134.2C151.375 138.787 149.002 143.48 146.709 148.28C146.442 148.013 146.362 147.773 146.469 147.56C146.575 147.347 146.682 147.16 146.789 147C148.762 142.467 150.895 138.067 153.189 133.8C155.482 129.48 157.962 125.24 160.629 121.08C160.949 120.6 161.109 120.2 161.109 119.88C161.109 119.507 160.895 119.08 160.469 118.6C158.442 116.147 156.522 113.667 154.709 111.16C152.949 108.6 151.322 105.933 149.829 103.16L148.709 100.52C148.495 99.9867 148.575 99.6933 148.949 99.64C149.215 99.5333 149.375 99.56 149.429 99.72C149.482 99.88 149.535 100.04 149.589 100.2C149.695 100.467 149.775 100.707 149.829 100.92C149.882 101.133 150.042 101.347 150.309 101.56C150.522 101.4 150.602 101.267 150.549 101.16C150.549 101 150.522 100.84 150.469 100.68C150.042 99.56 150.415 99.08 151.589 99.24C151.855 99.2933 152.095 99.3467 152.309 99.4C152.522 99.4533 152.709 99.2667 152.869 98.84C152.922 98.68 153.055 98.6533 153.269 98.76C153.535 98.8133 153.749 98.8933 153.909 99C154.229 99.2667 154.495 99.56 154.709 99.88C154.922 100.2 155.135 100.52 155.349 100.84C156.735 103.187 158.255 105.4 159.909 107.48C161.562 109.56 163.215 111.667 164.869 113.8C165.135 113.693 165.322 113.533 165.429 113.32C165.589 113.107 165.722 112.893 165.829 112.68C166.949 110.973 168.042 109.24 169.109 107.48C170.175 105.72 171.349 104.013 172.629 102.36C172.789 102.093 172.975 101.853 173.189 101.64C173.402 101.427 173.589 101.187 173.749 100.92C174.282 100.173 174.922 99.72 175.669 99.56C176.415 99.4 177.189 99.2667 177.989 99.16C178.095 99.1067 178.175 99.1067 178.229 99.16C178.282 99.2133 178.362 99.2133 178.469 99.16C179.269 99 179.722 98.9733 179.829 99.08C179.989 99.1867 180.042 99.6667 179.989 100.52C179.989 100.627 179.935 100.76 179.829 100.92C179.775 101.027 179.882 101.107 180.149 101.16C180.895 101.267 181.215 101.507 181.109 101.88C181.002 102.2 180.869 102.547 180.709 102.92C179.482 105.373 178.095 107.72 176.549 109.96C175.002 112.147 173.482 114.387 171.989 116.68C171.509 117.427 171.135 118.04 170.869 118.52C170.655 118.947 170.549 119.347 170.549 119.72C170.602 120.04 170.762 120.413 171.029 120.84C171.349 121.213 171.802 121.747 172.389 122.44C173.615 123.827 174.789 125.24 175.909 126.68C177.029 128.067 178.255 129.373 179.589 130.6L180.469 131.4C180.735 131.507 180.895 131.64 180.949 131.8C181.055 131.907 181.055 132.147 180.949 132.52C180.842 132.787 180.815 133.107 180.869 133.48C180.922 133.8 181.162 134.04 181.589 134.2C182.069 134.307 182.229 134.573 182.069 135C181.909 135.373 181.589 135.56 181.109 135.56C180.842 135.56 180.602 135.507 180.389 135.4C180.229 135.293 180.042 135.187 179.829 135.08C179.722 134.973 179.589 134.893 179.429 134.84C179.322 134.733 179.189 134.76 179.029 134.92C178.495 135.347 178.042 135.453 177.669 135.24C177.295 135.027 176.922 134.76 176.549 134.44C175.002 133.16 173.455 131.88 171.909 130.6C170.415 129.267 168.975 127.853 167.589 126.36C167.162 125.933 166.842 125.72 166.629 125.72C166.415 125.667 166.122 125.933 165.749 126.52C163.509 130.36 161.242 134.173 158.949 137.96C156.655 141.747 154.362 145.56 152.069 149.4C151.962 149.507 151.855 149.64 151.749 149.8C151.695 149.96 151.615 150.093 151.509 150.2C151.242 150.52 150.895 150.6 150.469 150.44C149.989 150.333 149.829 150.067 149.989 149.64C150.095 149.373 150.015 149.213 149.749 149.16C149.535 149.107 149.349 149.213 149.189 149.48C148.975 149.8 148.789 150.013 148.629 150.12C148.469 150.28 148.282 150.333 148.069 150.28C147.855 150.227 147.775 150.12 147.829 149.96C147.989 149.373 148.015 148.813 147.909 148.28C147.802 147.747 147.882 147.187 148.149 146.6C150.175 142.333 152.309 138.147 154.549 134.04C156.789 129.88 159.189 125.773 161.749 121.72C161.855 121.613 161.962 121.48 162.069 121.32C162.175 121.107 162.175 120.813 162.069 120.44ZM175.349 100.52C174.975 100.787 174.495 101.32 173.909 102.12C173.322 102.867 172.655 103.747 171.909 104.76C171.215 105.72 170.495 106.76 169.749 107.88C169.055 108.947 168.415 109.987 167.829 111C167.242 111.96 166.762 112.813 166.389 113.56C166.015 114.307 165.829 114.813 165.829 115.08C167.535 112.573 169.109 110.093 170.549 107.64C172.042 105.187 173.642 102.813 175.349 100.52ZM185.424 96.52C185.157 96.3067 184.917 96.04 184.704 95.72C184.49 95.3467 184.144 95.2133 183.664 95.32C183.397 95.4267 183.317 95.3467 183.424 95.08C183.424 94.8133 183.61 94.68 183.984 94.68C184.57 94.6267 185.13 94.6 185.664 94.6C186.197 94.5467 186.757 94.52 187.344 94.52C187.984 94.52 188.464 94.52 188.784 94.52C189.104 94.52 189.29 94.44 189.344 94.28C189.45 94.12 189.504 93.88 189.504 93.56C189.504 93.24 189.504 92.7867 189.504 92.2C189.61 90.9733 189.637 89.7733 189.584 88.6C189.53 87.3733 189.61 86.1467 189.824 84.92C189.824 84.7067 189.85 84.52 189.904 84.36C189.957 84.2 190.01 84.0133 190.064 83.8C190.117 83.64 190.197 83.48 190.304 83.32C190.41 83.16 190.57 83.1333 190.784 83.24C190.944 83.3467 190.97 83.48 190.864 83.64C190.757 83.8 190.677 83.9333 190.624 84.04C190.41 84.9467 190.304 85.8267 190.304 86.68C190.357 87.5333 190.357 88.3867 190.304 89.24C190.25 90.1467 190.224 91.0267 190.224 91.88C190.277 92.7333 190.304 93.6667 190.304 94.68C190.57 94.36 190.704 94.0933 190.704 93.88C190.704 93.6133 190.704 93.3467 190.704 93.08C190.757 91.64 190.784 90.2 190.784 88.76C190.837 87.2667 190.997 85.7733 191.264 84.28C191.424 83.16 191.93 82.84 192.784 83.32C192.89 83.3733 192.97 83.4267 193.024 83.48C193.13 83.5333 193.237 83.56 193.344 83.56C193.93 83.4533 194.224 83.4533 194.224 83.56C194.277 83.6667 194.384 84.04 194.544 84.68C194.864 86.2267 194.944 87.8 194.784 89.4C194.677 91 194.677 92.5733 194.784 94.12C194.837 94.6533 195.077 94.8933 195.504 94.84C195.77 94.84 195.957 94.8667 196.064 94.92C196.33 94.9733 196.624 94.9467 196.944 94.84C197.317 94.68 197.504 94.8133 197.504 95.24C197.557 95.5067 197.504 95.88 197.344 96.36C197.237 96.7867 196.89 96.9733 196.304 96.92C196.357 96.9733 196.41 97 196.464 97L196.544 97.08C196.81 97.1867 197.104 97.2133 197.424 97.16C197.797 97.1067 197.957 97.2933 197.904 97.72C197.904 98.1467 197.717 98.36 197.344 98.36C197.024 98.36 196.73 98.36 196.464 98.36C195.664 98.4667 195.184 98.6 195.024 98.76C194.917 98.8667 194.837 99.3733 194.784 100.28C194.677 105.347 194.544 110.387 194.384 115.4C194.224 120.413 194.197 125.453 194.304 130.52C194.357 130.733 194.384 130.947 194.384 131.16C194.384 131.373 194.384 131.613 194.384 131.88C194.49 132.893 194.73 133.587 195.104 133.96C195.477 134.333 196.144 134.547 197.104 134.6C197.53 134.6 197.93 134.627 198.304 134.68C198.73 134.68 199.157 134.787 199.584 135C199.744 135.107 199.93 135.213 200.144 135.32C200.41 135.427 200.464 135.613 200.304 135.88C200.197 135.987 200.144 136.147 200.144 136.36C200.144 136.573 200.117 136.787 200.064 137C200.01 137.16 199.904 137.293 199.744 137.4C199.637 137.56 199.424 137.587 199.104 137.48C198.997 137.427 198.864 137.373 198.704 137.32C198.597 137.32 198.49 137.453 198.384 137.72C198.65 137.827 198.917 137.853 199.184 137.8C199.45 137.8 199.717 137.827 199.984 137.88C200.517 137.987 200.784 138.227 200.784 138.6C200.784 138.867 200.704 139 200.544 139C200.384 139.053 200.197 139.107 199.984 139.16C199.504 139.267 199.024 139.293 198.544 139.24C198.064 139.24 197.584 139.213 197.104 139.16C196.357 139.107 195.637 138.92 194.944 138.6C194.25 138.28 193.504 138.067 192.704 137.96C192.33 137.907 191.984 137.747 191.664 137.48C191.397 137.213 191.157 136.867 190.944 136.44C190.197 134.893 189.61 133.32 189.184 131.72C188.757 130.12 188.57 128.44 188.624 126.68C188.677 122.253 188.73 117.853 188.784 113.48C188.89 109.107 189.077 104.733 189.344 100.36C189.344 99.9333 189.317 99.56 189.264 99.24C189.21 98.8667 188.864 98.7867 188.224 99C188.064 99.1067 187.93 99.1067 187.824 99C187.397 98.6267 186.944 98.36 186.464 98.2C186.037 97.9867 185.53 97.9333 184.944 98.04C184.73 98.0933 184.597 98.04 184.544 97.88C184.49 97.6667 184.517 97.4533 184.624 97.24L185.424 96.52ZM189.744 130.76C189.744 125.373 189.824 120.04 189.984 114.76C190.144 109.427 190.277 104.093 190.384 98.76C189.957 104.093 189.664 109.427 189.504 114.76C189.397 120.093 189.477 125.427 189.744 130.76Z" fill="white"/>
<defs>
<linearGradient id="paint0_linear_5_5" x1="163.207" y1="80.1696" x2="184.752" y2="228.758" gradientUnits="userSpaceOnUse">
<stop stop-color="#89D7F9"/>
<stop offset="0.456697" stop-color="#049FF6"/>
</linearGradient>
</defs>
</svg>
